<svg xmlns="http://www.w3.org/2000/svg" height="512pt" version="1.1" viewBox="0 0 512 512" width="512pt">



<path d="M 0.00 52.00 C 170.67 52.00 341.33 51.99 512.00 52.00 L 512.00 55.09 C 390.51 53.20 268.62 54.61 147.00 53.96 C 97.95 54.95 49.01 53.44 0.00 54.99 L 0.00 52.00 Z" fill="#3825a7" opacity="1.00" stroke="#3825a7" stroke-width="0.25" data-index="1" style="visibility: hidden;"></path>



<path d="M 255.28 112.16 C 270.00 124.68 281.93 140.17 290.93 157.24 C 292.43 160.07 296.11 164.20 291.64 166.22 C 286.23 169.35 281.54 173.56 276.28 176.90 C 270.95 163.85 264.34 151.19 255.35 140.27 C 240.18 160.08 229.74 183.23 225.74 207.90 C 224.45 209.36 224.62 211.38 225.26 213.10 C 224.80 217.00 224.15 220.87 223.72 224.79 C 223.60 226.01 223.37 228.45 223.26 229.67 C 233.90 234.81 243.89 241.17 254.34 246.67 C 257.21 248.08 259.58 245.03 261.95 243.95 C 270.36 238.55 280.06 234.97 287.86 228.70 C 287.93 223.24 286.69 217.78 287.19 212.33 C 292.93 208.10 298.37 203.10 304.77 199.95 C 307.40 213.36 309.38 227.12 308.89 240.80 C 296.40 248.03 283.27 254.33 271.61 262.88 C 266.11 265.04 261.30 268.58 255.91 270.95 C 249.52 269.48 244.78 264.07 238.56 261.95 C 226.95 253.98 214.38 247.63 202.00 240.99 C 201.94 236.25 201.89 231.52 201.82 226.79 C 201.89 226.14 202.02 224.85 202.09 224.20 C 202.41 221.38 202.76 218.60 202.92 215.78 C 202.97 215.35 203.06 214.49 203.11 214.06 C 203.28 212.52 203.64 209.44 203.82 207.90 C 203.89 207.19 204.05 205.77 204.13 205.06 C 208.98 181.32 217.20 157.77 231.82 138.17 C 238.58 128.59 246.91 120.32 255.28 112.16 Z" fill="#fcfafd" opacity="1.00" stroke="#fcfafd" stroke-width="0.25" data-index="3" style="opacity: 1; visibility: visible; fill: rgb(121, 40, 202);"></path>
<path d="M 190.94 136.00 C 197.84 125.61 213.98 127.43 218.13 139.40 C 221.80 151.09 207.31 158.10 198.07 154.96 C 189.70 152.67 190.52 142.91 190.94 136.00 Z" fill="#faf8fc" opacity="1.00" stroke="#faf8fc" stroke-width="0.25" data-index="4" style="opacity: 1; visibility: visible; fill: rgb(121, 40, 202); stroke: rgb(121, 40, 202);"></path>
<path d="M 293.63 139.85 C 295.78 128.37 310.56 127.15 318.97 132.87 C 319.42 133.86 319.87 134.87 320.31 135.87 C 319.65 137.24 319.40 139.21 320.96 140.08 C 324.95 154.39 304.05 160.69 295.86 150.82 C 295.15 149.61 294.45 148.40 293.81 147.17 C 293.77 145.34 293.68 141.68 293.63 139.85 Z" fill="#fbf8fc" opacity="1.00" stroke="#fbf8fc" stroke-width="0.25" data-index="5" style="opacity: 1; visibility: visible; fill: rgb(121, 40, 202); stroke: rgb(121, 40, 202);"></path>


<path d="M 320.31 135.87 C 321.36 137.03 321.40 138.65 320.96 140.08 C 319.40 139.21 319.65 137.24 320.31 135.87 Z" fill="#a991dc" opacity="1.00" stroke="#a991dc" stroke-width="0.25" data-index="7" style="opacity: 1; visibility: visible; fill: rgb(250, 248, 252); stroke: rgb(250, 248, 252);"></path>



<path d="M 338.00 154.52 C 338.49 154.39 339.45 154.13 339.93 154.00 C 340.30 174.76 339.55 195.54 340.33 216.30 C 339.73 230.60 339.89 244.93 340.28 259.24 C 339.96 260.28 339.27 260.96 338.22 261.27 C 339.39 225.78 339.80 189.96 338.00 154.52 Z" fill="#ac9acf" opacity="1.00" stroke="#ac9acf" stroke-width="0.25" data-index="9" style="opacity: 1; visibility: hidden;"></path>
<path d="M 172.05 260.07 C 172.56 224.90 170.73 189.57 173.00 154.52 C 184.57 158.05 196.45 161.17 207.05 167.16 C 205.57 174.05 202.84 180.76 199.82 187.10 C 197.62 186.35 196.02 184.54 193.97 183.52 C 188.96 180.09 193.79 191.79 191.97 193.00 C 192.71 211.18 190.60 230.38 193.02 247.93 C 207.80 256.84 223.00 265.00 237.98 273.56 C 243.53 276.88 249.24 279.92 254.81 283.21 C 256.22 284.72 257.77 282.62 259.14 282.22 C 268.36 276.60 277.75 271.25 286.97 265.61 C 297.10 259.98 307.02 253.98 316.93 247.97 C 319.47 247.54 318.86 244.99 319.28 243.25 C 320.19 223.62 321.00 200.70 318.95 183.00 C 294.18 195.16 271.96 213.88 256.68 236.99 C 252.46 233.48 249.45 228.81 245.39 225.14 C 241.75 219.99 237.26 215.69 232.30 211.86 C 233.75 204.13 235.87 196.54 237.31 188.80 C 244.74 192.27 248.86 200.23 256.00 204.13 C 271.05 189.49 287.34 175.81 306.19 166.25 C 316.46 161.48 327.12 157.64 338.00 154.52 C 339.80 189.96 339.39 225.78 338.22 261.27 C 337.80 261.48 336.98 261.88 336.57 262.09 C 310.84 274.15 286.97 289.76 262.51 304.14 C 260.12 305.59 257.67 306.84 255.14 307.89 C 241.69 299.76 228.18 291.73 214.57 283.90 C 201.07 275.96 187.58 267.91 173.44 261.15 C 173.09 260.88 172.40 260.34 172.05 260.07 Z" fill="#fcfbfd" opacity="1.00" stroke="#fcfbfd" stroke-width="0.25" data-index="10" style="opacity: 1; visibility: visible; fill: rgb(121, 40, 202);"></path>



<path d="M 191.97 193.00 C 193.79 191.79 188.96 180.09 193.97 183.52 C 191.37 194.39 193.75 206.10 193.23 217.26 C 192.92 227.47 192.92 237.70 193.02 247.93 C 190.60 230.38 192.71 211.18 191.97 193.00 Z" fill="#8b6cc0" opacity="1.00" stroke="#8b6cc0" stroke-width="0.25" data-index="12" style="opacity: 1; visibility: hidden;"></path>



<path d="M 484.02 194.00 C 493.62 194.65 502.41 189.52 512.00 189.87 L 512.00 210.04 C 501.24 211.59 489.95 206.82 479.51 210.35 C 469.38 210.84 459.14 212.87 449.05 210.87 C 427.14 207.27 404.75 213.79 382.98 210.06 C 371.80 209.78 357.73 205.02 348.14 212.58 C 345.19 212.08 343.38 209.50 341.13 207.79 C 341.12 205.28 341.14 202.77 341.20 200.27 C 341.81 197.53 342.32 194.78 343.11 192.10 C 345.34 193.02 347.26 195.13 349.86 194.76 C 366.11 194.77 382.46 196.00 398.60 193.57 C 427.07 195.86 455.12 194.38 484.02 194.00 Z" fill="#663ebb" opacity="1.00" stroke="#663ebb" stroke-width="0.25" data-index="14" style="visibility: hidden;"></path>


<path d="M 203.11 214.06 C 203.28 212.52 203.64 209.44 203.82 207.90 C 203.64 209.44 203.28 212.52 203.11 214.06 Z" fill="#b8a2df" opacity="1.00" stroke="#b8a2df" stroke-width="0.25" data-index="16" style="opacity: 1;"></path>


<path d="M 202.09 224.20 C 202.24 221.38 202.56 218.56 202.92 215.78 C 202.76 218.60 202.41 221.38 202.09 224.20 Z" fill="#bfaae1" opacity="1.00" stroke="#bfaae1" stroke-width="0.25" data-index="18" style="opacity: 1;"></path>



<path d="M 0.00 257.05 C 38.90 257.44 78.20 253.39 116.83 258.71 C 128.72 256.07 140.96 257.13 152.75 259.19 C 153.99 265.45 159.08 259.80 162.78 258.83 C 166.88 257.10 169.54 263.69 173.44 261.15 C 187.58 267.91 201.07 275.96 214.57 283.90 C 209.49 285.20 204.43 280.26 200.23 278.39 C 194.23 279.48 202.74 284.78 199.69 287.51 C 198.13 286.37 195.36 287.44 194.82 285.15 C 184.18 277.89 167.12 290.15 157.68 280.21 C 128.30 281.47 99.22 277.43 70.01 277.06 C 58.53 280.66 45.92 280.75 33.55 279.54 C 23.66 272.54 10.94 281.07 0.00 276.81 L 0.00 257.05 Z" fill="#7e4cc2" opacity="1.00" stroke="#7e4cc2" stroke-width="0.25" data-index="20" style="opacity: 1; visibility: hidden; fill: rgb(121, 40, 202);"></path>



<path d="M 50.93 315.03 C 57.77 312.84 69.51 308.13 74.02 314.98 C 82.50 318.42 90.33 308.51 97.46 314.51 C 112.76 317.81 128.42 310.01 143.75 314.14 C 148.13 313.54 158.84 318.96 159.71 312.11 C 162.83 312.03 167.90 310.47 168.50 314.73 C 192.40 316.07 216.28 318.30 240.30 315.42 C 249.88 318.28 260.64 319.75 270.05 315.31 C 278.98 317.83 288.21 319.28 297.54 318.48 C 316.48 314.52 335.66 312.85 354.96 312.23 C 383.05 314.82 411.24 311.30 439.29 312.49 C 441.07 315.79 447.70 316.96 447.71 312.15 C 451.76 311.49 455.90 312.05 460.00 311.91 C 467.28 307.61 462.11 320.20 469.98 315.06 C 472.72 313.82 481.96 317.89 479.37 311.96 C 490.32 311.34 501.11 313.61 512.00 314.10 L 512.00 337.00 C 467.36 336.59 422.69 337.11 378.05 337.11 C 371.36 340.80 364.55 337.76 358.72 334.08 C 362.10 330.45 361.15 328.74 354.93 330.86 C 349.77 330.08 350.76 339.07 347.27 339.68 C 345.63 333.30 342.01 328.94 335.00 330.98 C 336.46 337.83 346.92 344.09 341.94 351.18 C 340.52 345.67 335.74 346.30 331.16 346.14 C 329.24 348.29 327.10 350.19 324.02 350.07 C 324.16 343.69 323.19 336.91 325.78 330.89 C 323.13 330.89 317.83 330.91 315.18 330.91 C 318.39 337.12 316.59 344.52 316.93 351.26 C 312.43 344.70 301.97 344.36 300.16 353.23 C 300.91 346.23 298.02 338.42 301.28 331.85 C 305.01 328.45 288.01 327.76 292.78 332.92 C 292.67 338.02 294.04 343.46 292.13 348.38 C 287.07 342.94 287.92 330.07 278.93 331.00 C 269.49 328.19 275.73 332.56 277.14 334.88 C 277.09 340.66 276.92 346.44 276.81 352.24 C 275.65 349.48 274.52 346.71 273.47 343.91 C 272.74 348.13 266.68 349.15 264.20 345.90 C 262.76 338.12 257.35 328.20 248.03 330.10 C 240.53 331.58 238.72 339.48 236.83 345.76 C 228.42 345.64 240.16 351.21 233.68 352.67 C 229.74 355.36 232.89 344.05 229.61 347.71 C 227.28 348.79 222.47 356.03 220.86 351.28 C 227.35 349.30 228.54 340.26 224.81 335.18 C 219.85 328.21 210.32 331.81 203.21 330.93 C 205.51 334.78 204.74 339.49 204.89 343.77 C 205.69 350.02 203.53 352.51 199.23 348.68 C 196.39 345.88 193.93 350.78 190.80 350.55 C 196.04 344.34 195.54 333.89 187.17 330.79 C 182.79 330.54 172.36 328.11 170.27 330.89 C 172.97 336.44 171.73 342.93 171.98 348.88 C 167.34 352.58 162.91 356.51 159.13 361.11 C 159.05 360.28 158.89 358.64 158.81 357.81 C 161.16 348.24 159.95 335.81 150.36 330.59 C 142.82 327.51 136.50 333.88 133.74 340.20 C 133.23 338.53 132.89 336.77 131.96 335.27 C 107.22 338.79 81.18 336.27 56.62 337.58 C 53.65 342.09 48.32 339.64 45.68 336.20 C 30.47 337.13 15.24 337.11 0.00 337.00 L 0.00 313.00 C 16.91 313.98 34.39 310.77 50.93 315.03 Z" fill="#9256c7" opacity="1.00" stroke="#9256c7" stroke-width="0.25" data-index="22" style="opacity: 1; visibility: hidden; fill: rgb(121, 40, 202);"></path>



<path d="M 292.78 332.92 C 288.01 327.76 305.01 328.45 301.28 331.85 C 299.12 332.41 293.03 328.82 292.78 332.92 Z" fill="#be9ad8" opacity="1.00" stroke="#be9ad8" stroke-width="0.25" data-index="24" style="opacity: 1; visibility: hidden;"></path>



<path d="M 277.14 334.88 C 275.73 332.56 269.49 328.19 278.93 331.00 C 287.92 330.07 287.07 342.94 292.13 348.38 C 293.18 350.69 295.72 355.96 293.99 346.07 C 293.30 341.84 295.74 336.59 292.78 332.92 C 293.03 328.82 299.12 332.41 301.28 331.85 C 298.02 338.42 300.91 346.23 300.16 353.23 C 298.33 358.06 304.36 371.44 294.29 367.85 C 291.48 360.88 289.10 353.47 284.16 347.64 C 284.47 354.03 282.50 361.02 285.38 367.05 C 282.51 367.42 279.69 367.88 276.80 367.86 C 276.98 366.31 277.14 364.77 277.28 363.23 C 277.42 354.00 279.84 343.74 277.14 334.88 Z" fill="#f9f4fb" opacity="1.00" stroke="#f9f4fb" stroke-width="0.25" data-index="26" style="opacity: 1; visibility: hidden;"></path>



<path d="M 56.62 337.58 C 81.18 336.27 107.22 338.79 131.96 335.27 C 132.89 336.77 133.23 338.53 133.74 340.20 C 132.89 346.79 132.46 353.60 134.34 360.07 C 131.45 361.44 131.14 355.41 128.35 354.61 C 116.33 351.11 105.04 358.85 93.02 358.03 C 61.99 358.74 30.95 356.83 0.00 358.07 L 0.00 337.00 C 15.24 337.11 30.47 337.13 45.68 336.20 C 48.32 339.64 53.65 342.09 56.62 337.58 Z" fill="#9c5bca" opacity="1.00" stroke="#9c5bca" stroke-width="0.25" data-index="28" style="opacity: 1; visibility: hidden; fill: rgb(121, 40, 202);"></path>



<path d="M 183.90 347.13 C 177.92 354.03 177.02 337.84 179.99 335.98 C 181.01 339.80 177.08 348.62 183.90 347.13 Z" fill="#c8acdc" opacity="1.00" stroke="#c8acdc" stroke-width="0.25" data-index="30" style="opacity: 1; visibility: hidden;"></path>



<path d="M 159.13 361.11 C 162.91 356.51 167.34 352.58 171.98 348.88 C 173.12 356.22 169.36 367.16 173.98 372.23 C 169.19 375.19 177.03 373.99 179.34 373.33 C 181.48 372.06 186.54 369.37 186.70 373.76 C 208.04 371.66 229.04 373.10 250.30 375.54 C 258.21 375.29 265.99 372.95 273.95 373.48 C 278.12 374.35 283.23 379.08 286.18 374.26 C 304.04 378.61 322.45 370.21 340.03 375.88 C 345.46 375.19 351.05 375.02 356.40 376.33 C 381.46 372.42 408.09 372.29 433.17 377.65 C 444.26 376.89 455.34 383.45 466.26 379.37 C 481.48 378.45 496.75 379.27 512.00 379.00 L 512.00 401.00 C 488.46 401.12 464.93 399.70 441.42 400.64 C 437.61 404.26 432.18 402.73 430.29 397.93 C 429.71 390.25 426.70 396.42 428.87 401.25 C 427.78 402.98 429.05 404.59 429.83 406.15 C 427.37 404.57 424.61 403.88 421.70 404.19 C 426.77 400.34 422.40 391.68 415.99 393.94 C 412.28 393.53 415.59 399.20 414.69 401.86 C 412.92 402.18 411.16 402.49 409.38 402.73 C 402.35 405.16 407.33 396.35 403.19 393.81 C 403.04 395.47 402.98 397.14 402.85 398.82 C 401.07 406.00 398.04 396.36 396.16 393.94 C 392.01 394.48 391.16 400.18 388.74 403.19 C 386.91 406.57 381.88 408.76 379.14 405.14 C 385.44 405.81 387.58 397.29 382.71 394.17 C 379.08 393.10 375.51 396.38 375.06 399.90 C 373.91 401.55 372.10 402.47 370.40 403.43 C 370.20 400.27 370.20 397.18 369.88 394.06 C 365.36 392.90 369.04 400.36 367.89 402.95 C 362.24 404.60 369.32 392.99 364.02 393.99 C 361.97 393.93 363.50 397.38 363.05 398.80 C 362.49 401.23 362.55 403.66 363.76 405.89 C 359.76 403.79 355.68 408.39 351.98 405.58 C 353.09 405.26 354.01 404.71 354.75 403.92 L 355.16 403.23 C 355.34 402.94 355.69 402.35 355.87 402.05 C 360.02 405.61 357.88 395.03 354.88 399.71 C 349.32 399.31 352.08 397.43 354.14 394.97 C 347.35 391.36 349.38 397.00 349.07 399.88 C 346.96 408.08 346.72 393.46 344.27 400.40 C 342.24 399.19 340.13 397.98 338.81 395.96 C 340.90 395.70 342.73 396.54 344.32 397.83 C 344.64 391.12 334.74 394.17 338.74 399.69 C 336.87 401.05 335.72 403.76 333.22 403.96 C 333.47 399.85 326.83 405.45 328.03 401.14 C 327.29 399.16 334.23 400.57 330.98 399.06 C 327.02 400.88 326.76 392.68 330.41 395.59 C 334.13 400.05 331.60 388.08 327.05 393.99 C 323.63 393.66 326.80 400.00 325.89 402.19 C 321.19 404.94 321.56 398.48 319.35 395.90 C 318.19 393.40 315.28 393.92 313.03 393.99 C 308.89 394.79 316.47 407.76 306.99 402.83 C 303.92 402.18 300.97 402.82 298.10 403.91 C 300.91 399.86 295.20 399.02 293.01 396.85 C 293.95 393.11 296.59 396.78 298.14 398.08 C 299.03 391.21 288.93 393.92 292.50 399.70 C 292.38 401.25 292.25 402.80 292.17 404.37 C 290.45 404.82 288.91 403.75 287.34 403.24 C 284.96 400.55 283.91 397.10 282.42 393.92 C 281.69 396.16 280.97 398.41 280.13 400.62 C 277.73 400.27 274.20 397.51 273.19 401.16 C 275.84 396.32 269.88 388.87 270.71 398.89 C 266.75 400.32 268.91 396.24 268.98 394.02 C 264.88 392.80 265.64 396.72 265.92 399.99 C 264.05 399.31 262.14 398.75 260.28 398.07 C 258.91 392.33 249.51 392.07 251.85 399.11 C 249.78 397.80 247.48 397.11 245.05 397.72 C 244.91 396.24 246.86 393.03 244.04 393.96 C 241.35 394.06 240.62 396.09 241.87 400.06 C 237.05 397.99 227.49 406.12 227.29 397.78 C 226.79 394.25 221.92 393.80 219.28 393.95 C 218.80 397.07 219.58 400.68 217.99 403.62 C 215.87 403.57 213.87 402.82 211.92 402.08 C 211.21 401.27 210.52 400.45 209.84 399.62 C 212.48 399.29 212.93 395.25 210.69 394.13 C 202.51 390.47 205.51 398.85 204.79 403.17 C 203.16 402.39 201.45 402.10 199.93 403.29 C 197.86 400.52 197.18 397.09 195.87 393.97 C 192.60 393.93 193.35 398.72 192.23 400.99 C 190.75 402.38 189.51 405.49 187.05 404.18 C 186.80 398.17 179.70 407.04 181.10 400.16 C 190.75 402.62 185.59 397.57 182.87 398.71 C 178.60 400.72 181.95 389.87 186.33 395.67 C 181.09 390.60 176.82 395.33 178.56 401.43 C 176.10 399.05 176.45 393.18 171.96 393.96 C 171.53 393.99 170.67 394.06 170.24 394.09 C 174.90 400.81 161.12 400.82 165.77 394.11 C 161.52 392.73 164.64 399.77 163.75 402.21 C 159.61 398.64 153.96 396.66 148.67 398.47 C 150.04 397.36 150.72 394.97 148.71 394.13 C 139.81 390.38 144.42 400.08 142.12 404.40 C 140.60 404.98 139.29 404.49 138.34 403.23 C 136.85 399.85 135.38 403.18 133.00 403.08 C 132.23 400.34 134.16 399.82 136.44 399.71 C 136.67 397.82 136.83 395.92 136.86 394.03 C 127.93 390.38 132.65 399.34 130.04 403.43 C 128.64 405.64 126.75 405.96 124.70 404.30 C 129.16 402.03 128.64 395.37 123.61 394.33 C 115.75 390.56 118.91 398.23 118.33 402.22 C 115.86 400.32 112.91 401.65 110.17 401.96 C 107.85 401.21 111.97 394.14 108.93 394.00 C 104.38 393.04 107.85 400.45 106.84 403.12 C 102.56 399.48 108.54 409.15 104.33 406.61 C 101.32 406.29 102.61 402.94 102.08 400.89 C 101.98 397.10 99.06 391.96 94.33 394.14 C 90.46 396.36 91.54 401.69 94.27 404.47 C 92.20 404.61 90.10 404.65 88.07 404.13 C 80.79 405.02 83.65 398.23 82.87 394.07 C 78.62 392.87 81.70 399.82 80.54 402.25 C 77.53 400.14 75.96 394.57 71.32 396.30 C 64.60 399.23 57.90 395.05 51.03 396.75 C 43.88 395.12 33.93 391.71 29.22 399.07 C 28.26 393.07 19.58 393.56 16.24 397.41 C 12.54 403.01 6.50 391.43 5.79 398.66 C 3.95 397.75 2.03 397.00 0.00 396.63 L 0.00 375.04 C 31.64 374.20 63.45 378.74 94.99 373.90 C 108.48 372.22 122.11 375.46 135.64 373.75 C 137.59 367.20 144.51 380.13 145.51 372.28 C 149.88 367.41 157.28 365.13 158.81 357.81 C 158.89 358.64 159.05 360.28 159.13 361.11 Z" fill="#ac65cc" opacity="1.00" stroke="#ac65cc" stroke-width="0.25" data-index="32" style="visibility: hidden; fill: rgb(121, 40, 202); opacity: 1;"></path>



<path d="M 94.33 394.14 C 99.06 391.96 101.98 397.10 102.08 400.89 C 100.45 403.68 97.51 405.39 94.27 404.47 C 91.54 401.69 90.46 396.36 94.33 394.14 Z" fill="#ecbbf8" opacity="1.00" stroke="#ecbbf8" stroke-width="0.25" data-index="34" style="opacity: 1; visibility: hidden;"></path>



<path d="M 130.04 403.43 C 132.65 399.34 127.93 390.38 136.86 394.03 C 136.83 395.92 136.67 397.82 136.44 399.71 C 134.16 399.82 132.23 400.34 133.00 403.08 C 135.38 403.18 136.85 399.85 138.34 403.23 C 135.69 404.37 132.80 403.78 130.04 403.43 Z" fill="#daacea" opacity="1.00" stroke="#daacea" stroke-width="0.25" data-index="36" style="opacity: 1; visibility: hidden;"></path>



<path d="M 192.23 400.99 C 193.35 398.72 192.60 393.93 195.87 393.97 C 197.18 397.09 197.86 400.52 199.93 403.29 C 195.97 406.22 196.29 399.53 192.23 400.99 Z" fill="#e1b9ed" opacity="1.00" stroke="#e1b9ed" stroke-width="0.25" data-index="38" style="visibility: hidden; opacity: 1;"></path>



<path d="M 251.85 399.11 C 249.51 392.07 258.91 392.33 260.28 398.07 C 261.08 404.47 249.69 406.91 251.85 399.11 Z" fill="#f2c9fb" opacity="1.00" stroke="#f2c9fb" stroke-width="0.25" data-index="40" style="opacity: 1; visibility: hidden;"></path>



<path d="M 313.03 393.99 C 315.28 393.92 318.19 393.40 319.35 395.90 C 319.02 398.02 316.36 400.48 318.63 402.28 C 321.96 405.68 315.74 403.68 315.95 400.80 C 314.53 398.96 313.91 402.98 314.58 404.22 C 310.90 403.13 314.37 396.54 313.03 393.99 Z" fill="#f4d0fb" opacity="1.00" stroke="#f4d0fb" stroke-width="0.25" data-index="42" style="opacity: 1; visibility: hidden;"></path>



<path d="M 375.06 399.90 C 375.51 396.38 379.08 393.10 382.71 394.17 C 387.58 397.29 385.44 405.81 379.14 405.14 C 377.69 403.46 376.38 401.67 375.06 399.90 Z" fill="#e6b7f2" opacity="1.00" stroke="#e6b7f2" stroke-width="0.25" data-index="44" style="opacity: 1; visibility: hidden;"></path>



<path d="M 428.87 401.25 C 426.70 396.42 429.71 390.25 430.29 397.93 C 429.85 399.05 429.38 400.15 428.87 401.25 Z" fill="#eac4f7" opacity="1.00" stroke="#eac4f7" stroke-width="0.25" data-index="46" style="opacity: 1; visibility: hidden;"></path>



<path d="M 221.06 394.94 C 224.99 394.92 228.13 402.04 222.94 402.94 C 218.52 404.37 221.56 397.48 221.06 394.94 Z" fill="#aa70be" opacity="1.00" stroke="#aa70be" stroke-width="0.25" data-index="48" style="visibility: hidden;"></path>



<path d="M 418.21 395.09 C 423.94 394.84 422.64 404.53 417.01 403.05 C 418.03 400.85 415.58 396.82 418.21 395.09 Z" fill="#ab73c3" opacity="1.00" stroke="#ab73c3" stroke-width="0.25" data-index="50" style="opacity: 1; visibility: hidden;"></path>
<path d="M 145.16 396.16 C 149.80 395.15 144.16 400.80 145.16 396.16 Z" fill="#9771a6" opacity="1.00" stroke="#9771a6" stroke-width="0.25" data-index="51"></path>



<path d="M 15.44 417.56 C 20.48 413.02 27.84 415.18 34.03 414.21 C 39.08 410.81 39.07 417.04 42.13 417.89 C 78.71 417.67 115.53 423.32 151.98 417.96 C 183.41 417.64 214.90 418.75 246.29 417.45 C 250.92 412.28 258.78 420.73 264.44 416.64 C 277.53 418.39 291.31 419.00 304.19 415.30 C 309.58 413.21 312.51 420.25 317.98 418.01 C 337.30 416.72 356.19 422.34 375.54 419.41 C 402.89 415.35 430.95 420.84 458.17 416.42 C 476.12 418.04 494.25 417.13 512.00 420.17 L 512.00 440.94 C 490.98 442.56 470.01 440.49 449.00 442.03 C 428.12 443.45 407.76 438.99 386.97 441.78 C 327.46 441.63 267.80 442.00 208.31 441.70 C 190.55 439.11 172.71 443.86 154.98 441.19 C 131.02 440.33 106.88 444.26 83.02 440.91 C 71.22 437.77 59.80 443.10 47.99 442.05 C 31.95 440.69 15.19 442.82 0.00 436.65 L 0.00 415.81 C 5.31 415.59 10.14 418.94 15.44 417.56 Z" fill="#bc6ccd" opacity="1.00" stroke="#bc6ccd" stroke-width="0.25" data-index="53" style="visibility: hidden; fill: rgb(121, 40, 202); opacity: 1;"></path>



</svg>