<svg xmlns="http://www.w3.org/2000/svg" height="512pt" version="1.1" viewBox="0 0 512 512" width="512pt">

<path d="M 60.70 50.74 C 111.98 48.94 163.60 50.55 215.00 50.00 C 306.74 50.50 398.55 49.00 490.24 50.75 C 347.06 51.15 203.87 51.19 60.70 50.74 Z" fill="#f2edfe" opacity="1.00" stroke="#f2edfe" stroke-width="0.25" data-index="1" style="visibility: hidden;"></path>

<path d="M 0.00 52.00 C 170.67 52.00 341.33 51.99 512.00 52.00 L 512.00 55.09 C 390.51 53.20 268.62 54.61 147.00 53.96 C 97.95 54.95 49.01 53.44 0.00 54.99 L 0.00 52.00 Z" fill="#3825a7" opacity="1.00" stroke="#3825a7" stroke-width="0.25" data-index="3" style="visibility: hidden;"></path>

<path d="M 60.97 83.94 C 93.66 83.84 126.89 84.74 159.23 82.85 C 176.17 86.53 194.23 81.04 210.97 86.01 C 250.93 87.65 291.35 79.76 330.95 86.04 C 337.98 84.37 345.38 82.32 352.47 85.42 C 364.47 90.34 375.52 78.09 387.05 83.88 C 407.04 84.48 427.32 82.73 446.98 86.05 C 468.96 84.06 490.20 88.61 512.00 89.05 L 512.00 105.03 C 485.70 104.32 459.37 103.24 433.05 104.36 C 427.09 103.08 420.62 101.62 414.95 104.53 C 405.20 104.03 395.42 103.60 385.67 104.38 C 374.04 102.39 361.84 101.97 350.28 104.54 C 340.11 102.68 329.73 103.36 319.48 103.25 C 317.32 99.77 312.91 100.48 312.51 104.71 C 302.04 103.74 291.49 104.75 281.01 105.05 C 273.10 109.12 268.73 97.38 260.05 102.08 C 243.88 107.22 226.76 102.47 210.37 103.51 C 204.73 106.93 199.69 100.95 194.25 101.02 C 192.89 105.13 191.90 105.11 190.80 100.94 C 183.15 104.33 174.30 97.82 167.12 103.12 C 161.72 106.93 158.46 99.04 153.00 101.06 C 137.48 101.22 121.77 100.35 106.36 101.43 C 99.38 106.83 91.04 104.58 84.03 101.02 C 74.74 106.05 63.23 97.29 54.46 103.45 C 36.30 104.94 18.16 104.85 0.00 103.93 L 0.00 86.00 C 20.26 84.97 41.09 88.30 60.97 83.94 Z" fill="#442ab3" opacity="1.00" stroke="#442ab3" stroke-width="0.25" data-index="5" style="visibility: hidden;"></path>

<path d="M 255.28 112.16 C 270.00 124.68 281.93 140.17 290.93 157.24 C 292.43 160.07 296.11 164.20 291.64 166.22 C 286.23 169.35 281.54 173.56 276.28 176.90 C 270.95 163.85 264.34 151.19 255.35 140.27 C 240.18 160.08 229.74 183.23 225.74 207.90 C 224.45 209.36 224.62 211.38 225.26 213.10 C 224.80 217.00 224.15 220.87 223.72 224.79 C 223.60 226.01 223.37 228.45 223.26 229.67 C 233.90 234.81 243.89 241.17 254.34 246.67 C 257.21 248.08 259.58 245.03 261.95 243.95 C 270.36 238.55 280.06 234.97 287.86 228.70 C 287.93 223.24 286.69 217.78 287.19 212.33 C 292.93 208.10 298.37 203.10 304.77 199.95 C 307.40 213.36 309.38 227.12 308.89 240.80 C 296.40 248.03 283.27 254.33 271.61 262.88 C 266.11 265.04 261.30 268.58 255.91 270.95 C 249.52 269.48 244.78 264.07 238.56 261.95 C 226.95 253.98 214.38 247.63 202.00 240.99 C 201.94 236.25 201.89 231.52 201.82 226.79 C 201.89 226.14 202.02 224.85 202.09 224.20 C 202.41 221.38 202.76 218.60 202.92 215.78 C 202.97 215.35 203.06 214.49 203.11 214.06 C 203.28 212.52 203.64 209.44 203.82 207.90 C 203.89 207.19 204.05 205.77 204.13 205.06 C 208.98 181.32 217.20 157.77 231.82 138.17 C 238.58 128.59 246.91 120.32 255.28 112.16 Z" fill="#fcfafd" opacity="1.00" stroke="#fcfafd" stroke-width="0.25" data-index="7" style="opacity: 1; visibility: visible; fill: rgb(250, 248, 252);"></path>
<path d="M 190.94 136.00 C 197.84 125.61 213.98 127.43 218.13 139.40 C 221.80 151.09 207.31 158.10 198.07 154.96 C 189.70 152.67 190.52 142.91 190.94 136.00 Z" fill="#faf8fc" opacity="1.00" stroke="#faf8fc" stroke-width="0.25" data-index="8" style="opacity: 1; visibility: visible; fill: rgb(250, 248, 252);"></path>
<path d="M 293.63 139.85 C 295.78 128.37 310.56 127.15 318.97 132.87 C 319.42 133.86 319.87 134.87 320.31 135.87 C 319.65 137.24 319.40 139.21 320.96 140.08 C 324.95 154.39 304.05 160.69 295.86 150.82 C 295.15 149.61 294.45 148.40 293.81 147.17 C 293.77 145.34 293.68 141.68 293.63 139.85 Z" fill="#fbf8fc" opacity="1.00" stroke="#fbf8fc" stroke-width="0.25" data-index="9" style="opacity: 1; visibility: visible; fill: rgb(250, 248, 252);"></path>

<path d="M 318.97 132.87 C 324.39 132.59 324.37 140.86 329.12 140.32 C 334.02 138.52 329.45 148.54 334.09 145.18 C 338.67 140.27 348.45 152.01 352.59 143.57 C 368.19 141.99 384.77 144.20 400.67 144.47 C 417.64 140.90 434.93 145.13 452.03 143.24 C 466.47 143.26 480.90 140.74 495.35 142.46 C 498.66 148.59 506.41 145.34 512.00 146.02 L 512.00 169.09 C 499.67 168.36 487.28 167.12 474.98 168.80 C 434.37 169.38 393.73 168.68 353.13 169.11 C 349.42 169.86 350.51 177.72 346.10 174.86 C 342.58 172.48 343.08 177.69 341.81 179.74 C 340.40 186.46 340.98 193.43 341.20 200.27 C 341.14 202.77 341.12 205.28 341.13 207.79 C 340.92 210.62 340.88 213.50 340.33 216.30 C 339.55 195.54 340.30 174.76 339.93 154.00 C 339.45 154.13 338.49 154.39 338.00 154.52 C 327.12 157.64 316.46 161.48 306.19 166.25 C 303.67 166.41 301.40 166.23 302.85 163.30 C 298.33 161.94 295.68 168.09 291.64 166.22 C 296.11 164.20 292.43 160.07 290.93 157.24 C 291.99 154.69 293.84 152.67 295.86 150.82 C 304.05 160.69 324.95 154.39 320.96 140.08 C 321.40 138.65 321.36 137.03 320.31 135.87 C 319.87 134.87 319.42 133.86 318.97 132.87 Z" fill="#5834b7" opacity="1.00" stroke="#5834b7" stroke-width="0.25" data-index="11" style="visibility: hidden;"></path>
<path d="M 320.31 135.87 C 321.36 137.03 321.40 138.65 320.96 140.08 C 319.40 139.21 319.65 137.24 320.31 135.87 Z" fill="#a991dc" opacity="1.00" stroke="#a991dc" stroke-width="0.25" data-index="12" style="opacity: 1; visibility: visible; fill: rgb(250, 248, 252); stroke: rgb(250, 248, 252);"></path>

<path d="M 293.81 147.17 C 291.29 145.42 292.37 142.26 293.63 139.85 C 293.68 141.68 293.77 145.34 293.81 147.17 Z" fill="#b7a6e6" opacity="1.00" stroke="#b7a6e6" stroke-width="0.25" data-index="14" style="visibility: hidden;"></path>

<path d="M 338.00 154.52 C 338.49 154.39 339.45 154.13 339.93 154.00 C 340.30 174.76 339.55 195.54 340.33 216.30 C 339.73 230.60 339.89 244.93 340.28 259.24 C 339.96 260.28 339.27 260.96 338.22 261.27 C 339.39 225.78 339.80 189.96 338.00 154.52 Z" fill="#ac9acf" opacity="1.00" stroke="#ac9acf" stroke-width="0.25" data-index="16" style="opacity: 1; visibility: hidden;"></path>
<path d="M 172.05 260.07 C 172.56 224.90 170.73 189.57 173.00 154.52 C 184.57 158.05 196.45 161.17 207.05 167.16 C 205.57 174.05 202.84 180.76 199.82 187.10 C 197.62 186.35 196.02 184.54 193.97 183.52 C 188.96 180.09 193.79 191.79 191.97 193.00 C 192.71 211.18 190.60 230.38 193.02 247.93 C 207.80 256.84 223.00 265.00 237.98 273.56 C 243.53 276.88 249.24 279.92 254.81 283.21 C 256.22 284.72 257.77 282.62 259.14 282.22 C 268.36 276.60 277.75 271.25 286.97 265.61 C 297.10 259.98 307.02 253.98 316.93 247.97 C 319.47 247.54 318.86 244.99 319.28 243.25 C 320.19 223.62 321.00 200.70 318.95 183.00 C 294.18 195.16 271.96 213.88 256.68 236.99 C 252.46 233.48 249.45 228.81 245.39 225.14 C 241.75 219.99 237.26 215.69 232.30 211.86 C 233.75 204.13 235.87 196.54 237.31 188.80 C 244.74 192.27 248.86 200.23 256.00 204.13 C 271.05 189.49 287.34 175.81 306.19 166.25 C 316.46 161.48 327.12 157.64 338.00 154.52 C 339.80 189.96 339.39 225.78 338.22 261.27 C 337.80 261.48 336.98 261.88 336.57 262.09 C 310.84 274.15 286.97 289.76 262.51 304.14 C 260.12 305.59 257.67 306.84 255.14 307.89 C 241.69 299.76 228.18 291.73 214.57 283.90 C 201.07 275.96 187.58 267.91 173.44 261.15 C 173.09 260.88 172.40 260.34 172.05 260.07 Z" fill="#fcfbfd" opacity="1.00" stroke="#fcfbfd" stroke-width="0.25" data-index="17" style="opacity: 1; visibility: visible; fill: rgb(250, 248, 252);"></path>

<path d="M 474.98 168.80 C 487.28 167.12 499.67 168.36 512.00 169.09 L 512.00 189.87 C 502.41 189.52 493.62 194.65 484.02 194.00 C 455.12 194.38 427.07 195.86 398.60 193.57 C 382.46 196.00 366.11 194.77 349.86 194.76 C 347.26 195.13 345.34 193.02 343.11 192.10 C 342.32 194.78 341.81 197.53 341.20 200.27 C 340.98 193.43 340.40 186.46 341.81 179.74 C 343.08 177.69 342.58 172.48 346.10 174.86 C 350.51 177.72 349.42 169.86 353.13 169.11 C 393.73 168.68 434.37 169.38 474.98 168.80 Z" fill="#5f38ba" opacity="1.00" stroke="#5f38ba" stroke-width="0.25" data-index="19" style="visibility: hidden;"></path>

<path d="M 191.97 193.00 C 193.79 191.79 188.96 180.09 193.97 183.52 C 191.37 194.39 193.75 206.10 193.23 217.26 C 192.92 227.47 192.92 237.70 193.02 247.93 C 190.60 230.38 192.71 211.18 191.97 193.00 Z" fill="#8b6cc0" opacity="1.00" stroke="#8b6cc0" stroke-width="0.25" data-index="21" style="opacity: 1; visibility: hidden;"></path>

<path d="M 318.95 183.00 C 321.00 200.70 320.19 223.62 319.28 243.25 C 318.58 223.18 319.25 203.08 318.95 183.00 Z" fill="#ebd9fe" opacity="1.00" stroke="#ebd9fe" stroke-width="0.25" data-index="23" style="opacity: 1; visibility: hidden; fill: rgb(250, 248, 252);"></path>

<path d="M 484.02 194.00 C 493.62 194.65 502.41 189.52 512.00 189.87 L 512.00 210.04 C 501.24 211.59 489.95 206.82 479.51 210.35 C 469.38 210.84 459.14 212.87 449.05 210.87 C 427.14 207.27 404.75 213.79 382.98 210.06 C 371.80 209.78 357.73 205.02 348.14 212.58 C 345.19 212.08 343.38 209.50 341.13 207.79 C 341.12 205.28 341.14 202.77 341.20 200.27 C 341.81 197.53 342.32 194.78 343.11 192.10 C 345.34 193.02 347.26 195.13 349.86 194.76 C 366.11 194.77 382.46 196.00 398.60 193.57 C 427.07 195.86 455.12 194.38 484.02 194.00 Z" fill="#663ebb" opacity="1.00" stroke="#663ebb" stroke-width="0.25" data-index="25" style="visibility: hidden;"></path>

<path d="M 144.57 209.48 C 152.02 209.43 160.96 211.55 167.04 206.03 C 168.53 209.59 168.49 213.61 169.75 217.27 C 170.43 227.57 169.90 237.91 169.72 248.23 C 168.14 243.63 169.04 238.57 166.94 234.12 C 162.16 240.92 152.72 232.01 146.48 235.65 C 139.59 237.70 131.35 235.02 125.44 239.54 C 117.90 241.79 110.54 234.92 103.40 238.30 C 89.58 241.94 76.28 235.54 62.54 237.43 C 52.51 238.48 42.42 238.03 32.38 237.48 C 31.64 242.03 25.44 240.37 23.11 237.88 C 15.40 234.70 7.73 238.75 0.00 239.20 L 0.00 209.00 C 48.20 211.77 96.30 209.99 144.57 209.48 Z" fill="#6e41bd" opacity="1.00" stroke="#6e41bd" stroke-width="0.25" data-index="27" style="opacity: 1; visibility: hidden; fill: rgb(121, 40, 202);"></path>
<path d="M 203.11 214.06 C 203.28 212.52 203.64 209.44 203.82 207.90 C 203.64 209.44 203.28 212.52 203.11 214.06 Z" fill="#b8a2df" opacity="1.00" stroke="#b8a2df" stroke-width="0.25" data-index="28" style="opacity: 1;"></path>

<path d="M 341.13 207.79 C 343.38 209.50 345.19 212.08 348.14 212.58 C 357.73 205.02 371.80 209.78 382.98 210.06 C 404.75 213.79 427.14 207.27 449.05 210.87 C 459.14 212.87 469.38 210.84 479.51 210.35 C 489.95 206.82 501.24 211.59 512.00 210.04 L 512.00 239.09 C 498.96 238.52 485.72 236.67 472.79 238.81 C 465.52 242.83 460.00 235.61 452.88 235.26 C 442.91 237.64 433.69 242.69 422.99 241.05 C 402.39 241.77 381.71 233.74 361.97 241.04 C 357.00 243.13 350.90 236.02 347.87 242.42 C 346.67 242.68 343.39 236.65 342.89 240.74 C 337.85 244.06 343.22 253.55 340.28 259.24 C 339.89 244.93 339.73 230.60 340.33 216.30 C 340.88 213.50 340.92 210.62 341.13 207.79 Z" fill="#6e41bd" opacity="1.00" stroke="#6e41bd" stroke-width="0.25" data-index="30" style="opacity: 1; visibility: hidden;"></path>
<path d="M 202.09 224.20 C 202.24 221.38 202.56 218.56 202.92 215.78 C 202.76 218.60 202.41 221.38 202.09 224.20 Z" fill="#bfaae1" opacity="1.00" stroke="#bfaae1" stroke-width="0.25" data-index="31" style="opacity: 1;"></path>

<path d="M 146.48 235.65 C 152.72 232.01 162.16 240.92 166.94 234.12 C 169.04 238.57 168.14 243.63 169.72 248.23 C 169.60 252.02 169.98 255.63 170.86 259.07 C 171.15 259.32 171.75 259.82 172.05 260.07 C 172.40 260.34 173.09 260.88 173.44 261.15 C 169.54 263.69 166.88 257.10 162.78 258.83 C 159.08 259.80 153.99 265.45 152.75 259.19 C 140.96 257.13 128.72 256.07 116.83 258.71 C 78.20 253.39 38.90 257.44 0.00 257.05 L 0.00 239.20 C 7.73 238.75 15.40 234.70 23.11 237.88 C 25.44 240.37 31.64 242.03 32.38 237.48 C 42.42 238.03 52.51 238.48 62.54 237.43 C 76.28 235.54 89.58 241.94 103.40 238.30 C 110.54 234.92 117.90 241.79 125.44 239.54 C 131.35 235.02 139.59 237.70 146.48 235.65 Z" fill="#7545c1" opacity="1.00" stroke="#7545c1" stroke-width="0.25" data-index="33" style="opacity: 1; visibility: hidden; fill: rgb(121, 40, 202);"></path>

<path d="M 0.00 257.05 C 38.90 257.44 78.20 253.39 116.83 258.71 C 128.72 256.07 140.96 257.13 152.75 259.19 C 153.99 265.45 159.08 259.80 162.78 258.83 C 166.88 257.10 169.54 263.69 173.44 261.15 C 187.58 267.91 201.07 275.96 214.57 283.90 C 209.49 285.20 204.43 280.26 200.23 278.39 C 194.23 279.48 202.74 284.78 199.69 287.51 C 198.13 286.37 195.36 287.44 194.82 285.15 C 184.18 277.89 167.12 290.15 157.68 280.21 C 128.30 281.47 99.22 277.43 70.01 277.06 C 58.53 280.66 45.92 280.75 33.55 279.54 C 23.66 272.54 10.94 281.07 0.00 276.81 L 0.00 257.05 Z" fill="#7e4cc2" opacity="1.00" stroke="#7e4cc2" stroke-width="0.25" data-index="35" style="opacity: 1; visibility: hidden; fill: rgb(121, 40, 202);"></path>

<path d="M 353.21 261.08 C 358.65 260.92 363.87 257.94 369.33 258.61 C 404.48 259.33 439.81 258.22 474.97 259.78 C 487.34 258.11 499.77 259.14 512.00 261.17 L 512.00 282.17 C 502.34 281.38 492.71 277.68 482.96 279.93 C 460.27 286.32 436.80 277.37 414.01 282.08 C 399.94 279.21 385.41 279.79 371.05 280.12 C 365.69 282.25 359.85 282.06 354.24 281.10 C 353.64 286.88 346.63 290.96 343.05 284.87 C 329.18 283.56 314.70 289.94 300.48 289.68 C 299.49 284.06 295.88 289.58 293.86 291.42 C 282.06 290.65 273.63 304.40 262.51 304.14 C 286.97 289.76 310.84 274.15 336.57 262.09 C 340.70 264.54 342.78 262.64 343.57 258.97 C 343.87 264.08 351.59 265.03 353.21 261.08 Z" fill="#804dc2" opacity="1.00" stroke="#804dc2" stroke-width="0.25" data-index="37" style="opacity: 1; visibility: hidden;"></path>

<path d="M 50.93 315.03 C 57.77 312.84 69.51 308.13 74.02 314.98 C 82.50 318.42 90.33 308.51 97.46 314.51 C 112.76 317.81 128.42 310.01 143.75 314.14 C 148.13 313.54 158.84 318.96 159.71 312.11 C 162.83 312.03 167.90 310.47 168.50 314.73 C 192.40 316.07 216.28 318.30 240.30 315.42 C 249.88 318.28 260.64 319.75 270.05 315.31 C 278.98 317.83 288.21 319.28 297.54 318.48 C 316.48 314.52 335.66 312.85 354.96 312.23 C 383.05 314.82 411.24 311.30 439.29 312.49 C 441.07 315.79 447.70 316.96 447.71 312.15 C 451.76 311.49 455.90 312.05 460.00 311.91 C 467.28 307.61 462.11 320.20 469.98 315.06 C 472.72 313.82 481.96 317.89 479.37 311.96 C 490.32 311.34 501.11 313.61 512.00 314.10 L 512.00 337.00 C 467.36 336.59 422.69 337.11 378.05 337.11 C 371.36 340.80 364.55 337.76 358.72 334.08 C 362.10 330.45 361.15 328.74 354.93 330.86 C 349.77 330.08 350.76 339.07 347.27 339.68 C 345.63 333.30 342.01 328.94 335.00 330.98 C 336.46 337.83 346.92 344.09 341.94 351.18 C 340.52 345.67 335.74 346.30 331.16 346.14 C 329.24 348.29 327.10 350.19 324.02 350.07 C 324.16 343.69 323.19 336.91 325.78 330.89 C 323.13 330.89 317.83 330.91 315.18 330.91 C 318.39 337.12 316.59 344.52 316.93 351.26 C 312.43 344.70 301.97 344.36 300.16 353.23 C 300.91 346.23 298.02 338.42 301.28 331.85 C 305.01 328.45 288.01 327.76 292.78 332.92 C 292.67 338.02 294.04 343.46 292.13 348.38 C 287.07 342.94 287.92 330.07 278.93 331.00 C 269.49 328.19 275.73 332.56 277.14 334.88 C 277.09 340.66 276.92 346.44 276.81 352.24 C 275.65 349.48 274.52 346.71 273.47 343.91 C 272.74 348.13 266.68 349.15 264.20 345.90 C 262.76 338.12 257.35 328.20 248.03 330.10 C 240.53 331.58 238.72 339.48 236.83 345.76 C 228.42 345.64 240.16 351.21 233.68 352.67 C 229.74 355.36 232.89 344.05 229.61 347.71 C 227.28 348.79 222.47 356.03 220.86 351.28 C 227.35 349.30 228.54 340.26 224.81 335.18 C 219.85 328.21 210.32 331.81 203.21 330.93 C 205.51 334.78 204.74 339.49 204.89 343.77 C 205.69 350.02 203.53 352.51 199.23 348.68 C 196.39 345.88 193.93 350.78 190.80 350.55 C 196.04 344.34 195.54 333.89 187.17 330.79 C 182.79 330.54 172.36 328.11 170.27 330.89 C 172.97 336.44 171.73 342.93 171.98 348.88 C 167.34 352.58 162.91 356.51 159.13 361.11 C 159.05 360.28 158.89 358.64 158.81 357.81 C 161.16 348.24 159.95 335.81 150.36 330.59 C 142.82 327.51 136.50 333.88 133.74 340.20 C 133.23 338.53 132.89 336.77 131.96 335.27 C 107.22 338.79 81.18 336.27 56.62 337.58 C 53.65 342.09 48.32 339.64 45.68 336.20 C 30.47 337.13 15.24 337.11 0.00 337.00 L 0.00 313.00 C 16.91 313.98 34.39 310.77 50.93 315.03 Z" fill="#9256c7" opacity="1.00" stroke="#9256c7" stroke-width="0.25" data-index="39" style="opacity: 1; visibility: hidden; fill: rgb(121, 40, 202);"></path>

<path d="M 170.27 330.89 C 172.36 328.11 182.79 330.54 187.17 330.79 C 181.53 330.89 175.90 330.99 170.27 330.89 Z" fill="#b491d1" opacity="1.00" stroke="#b491d1" stroke-width="0.25" data-index="41" style="opacity: 1; visibility: hidden;"></path>

<path d="M 292.78 332.92 C 288.01 327.76 305.01 328.45 301.28 331.85 C 299.12 332.41 293.03 328.82 292.78 332.92 Z" fill="#be9ad8" opacity="1.00" stroke="#be9ad8" stroke-width="0.25" data-index="43" style="opacity: 1; visibility: hidden;"></path>

<path d="M 170.27 330.89 C 175.90 330.99 181.53 330.89 187.17 330.79 C 195.54 333.89 196.04 344.34 190.80 350.55 C 186.94 351.44 182.97 351.66 179.07 352.27 C 177.86 359.67 182.92 368.75 173.98 372.23 C 169.36 367.16 173.12 356.22 171.98 348.88 C 171.73 342.93 172.97 336.44 170.27 330.89 Z" fill="#f9f3fc" opacity="1.00" stroke="#f9f3fc" stroke-width="0.25" data-index="45" style="opacity: 1; visibility: hidden;"></path>

<path d="M 277.14 334.88 C 275.73 332.56 269.49 328.19 278.93 331.00 C 287.92 330.07 287.07 342.94 292.13 348.38 C 293.18 350.69 295.72 355.96 293.99 346.07 C 293.30 341.84 295.74 336.59 292.78 332.92 C 293.03 328.82 299.12 332.41 301.28 331.85 C 298.02 338.42 300.91 346.23 300.16 353.23 C 298.33 358.06 304.36 371.44 294.29 367.85 C 291.48 360.88 289.10 353.47 284.16 347.64 C 284.47 354.03 282.50 361.02 285.38 367.05 C 282.51 367.42 279.69 367.88 276.80 367.86 C 276.98 366.31 277.14 364.77 277.28 363.23 C 277.42 354.00 279.84 343.74 277.14 334.88 Z" fill="#f9f4fb" opacity="1.00" stroke="#f9f4fb" stroke-width="0.25" data-index="47" style="opacity: 1; visibility: hidden;"></path>

<path d="M 292.78 332.92 C 295.74 336.59 293.30 341.84 293.99 346.07 C 295.72 355.96 293.18 350.69 292.13 348.38 C 294.04 343.46 292.67 338.02 292.78 332.92 Z" fill="#c39fd9" opacity="1.00" stroke="#c39fd9" stroke-width="0.25" data-index="49" style="opacity: 1; visibility: hidden;"></path>

<path d="M 56.62 337.58 C 81.18 336.27 107.22 338.79 131.96 335.27 C 132.89 336.77 133.23 338.53 133.74 340.20 C 132.89 346.79 132.46 353.60 134.34 360.07 C 131.45 361.44 131.14 355.41 128.35 354.61 C 116.33 351.11 105.04 358.85 93.02 358.03 C 61.99 358.74 30.95 356.83 0.00 358.07 L 0.00 337.00 C 15.24 337.11 30.47 337.13 45.68 336.20 C 48.32 339.64 53.65 342.09 56.62 337.58 Z" fill="#9c5bca" opacity="1.00" stroke="#9c5bca" stroke-width="0.25" data-index="51" style="opacity: 1; visibility: hidden; fill: rgb(121, 40, 202);"></path>

<path d="M 250.23 335.40 C 257.39 336.69 257.64 346.33 257.02 351.99 C 258.60 358.63 250.10 369.73 245.32 359.73 C 243.56 352.30 241.06 338.59 250.23 335.40 Z" fill="#9d5fc7" opacity="1.00" stroke="#9d5fc7" stroke-width="0.25" data-index="53" style="opacity: 1; visibility: hidden;"></path>

<path d="M 183.90 347.13 C 177.92 354.03 177.02 337.84 179.99 335.98 C 181.01 339.80 177.08 348.62 183.90 347.13 Z" fill="#c8acdc" opacity="1.00" stroke="#c8acdc" stroke-width="0.25" data-index="55" style="opacity: 1; visibility: hidden;"></path>

<path d="M 212.06 336.00 C 220.69 332.86 223.38 345.87 215.72 347.72 C 208.81 350.40 212.86 339.82 212.06 336.00 Z" fill="#a066c7" opacity="1.00" stroke="#a066c7" stroke-width="0.25" data-index="57" style="visibility: hidden;"></path>

<path d="M 159.13 361.11 C 162.91 356.51 167.34 352.58 171.98 348.88 C 173.12 356.22 169.36 367.16 173.98 372.23 C 169.19 375.19 177.03 373.99 179.34 373.33 C 181.48 372.06 186.54 369.37 186.70 373.76 C 208.04 371.66 229.04 373.10 250.30 375.54 C 258.21 375.29 265.99 372.95 273.95 373.48 C 278.12 374.35 283.23 379.08 286.18 374.26 C 304.04 378.61 322.45 370.21 340.03 375.88 C 345.46 375.19 351.05 375.02 356.40 376.33 C 381.46 372.42 408.09 372.29 433.17 377.65 C 444.26 376.89 455.34 383.45 466.26 379.37 C 481.48 378.45 496.75 379.27 512.00 379.00 L 512.00 401.00 C 488.46 401.12 464.93 399.70 441.42 400.64 C 437.61 404.26 432.18 402.73 430.29 397.93 C 429.71 390.25 426.70 396.42 428.87 401.25 C 427.78 402.98 429.05 404.59 429.83 406.15 C 427.37 404.57 424.61 403.88 421.70 404.19 C 426.77 400.34 422.40 391.68 415.99 393.94 C 412.28 393.53 415.59 399.20 414.69 401.86 C 412.92 402.18 411.16 402.49 409.38 402.73 C 402.35 405.16 407.33 396.35 403.19 393.81 C 403.04 395.47 402.98 397.14 402.85 398.82 C 401.07 406.00 398.04 396.36 396.16 393.94 C 392.01 394.48 391.16 400.18 388.74 403.19 C 386.91 406.57 381.88 408.76 379.14 405.14 C 385.44 405.81 387.58 397.29 382.71 394.17 C 379.08 393.10 375.51 396.38 375.06 399.90 C 373.91 401.55 372.10 402.47 370.40 403.43 C 370.20 400.27 370.20 397.18 369.88 394.06 C 365.36 392.90 369.04 400.36 367.89 402.95 C 362.24 404.60 369.32 392.99 364.02 393.99 C 361.97 393.93 363.50 397.38 363.05 398.80 C 362.49 401.23 362.55 403.66 363.76 405.89 C 359.76 403.79 355.68 408.39 351.98 405.58 C 353.09 405.26 354.01 404.71 354.75 403.92 L 355.16 403.23 C 355.34 402.94 355.69 402.35 355.87 402.05 C 360.02 405.61 357.88 395.03 354.88 399.71 C 349.32 399.31 352.08 397.43 354.14 394.97 C 347.35 391.36 349.38 397.00 349.07 399.88 C 346.96 408.08 346.72 393.46 344.27 400.40 C 342.24 399.19 340.13 397.98 338.81 395.96 C 340.90 395.70 342.73 396.54 344.32 397.83 C 344.64 391.12 334.74 394.17 338.74 399.69 C 336.87 401.05 335.72 403.76 333.22 403.96 C 333.47 399.85 326.83 405.45 328.03 401.14 C 327.29 399.16 334.23 400.57 330.98 399.06 C 327.02 400.88 326.76 392.68 330.41 395.59 C 334.13 400.05 331.60 388.08 327.05 393.99 C 323.63 393.66 326.80 400.00 325.89 402.19 C 321.19 404.94 321.56 398.48 319.35 395.90 C 318.19 393.40 315.28 393.92 313.03 393.99 C 308.89 394.79 316.47 407.76 306.99 402.83 C 303.92 402.18 300.97 402.82 298.10 403.91 C 300.91 399.86 295.20 399.02 293.01 396.85 C 293.95 393.11 296.59 396.78 298.14 398.08 C 299.03 391.21 288.93 393.92 292.50 399.70 C 292.38 401.25 292.25 402.80 292.17 404.37 C 290.45 404.82 288.91 403.75 287.34 403.24 C 284.96 400.55 283.91 397.10 282.42 393.92 C 281.69 396.16 280.97 398.41 280.13 400.62 C 277.73 400.27 274.20 397.51 273.19 401.16 C 275.84 396.32 269.88 388.87 270.71 398.89 C 266.75 400.32 268.91 396.24 268.98 394.02 C 264.88 392.80 265.64 396.72 265.92 399.99 C 264.05 399.31 262.14 398.75 260.28 398.07 C 258.91 392.33 249.51 392.07 251.85 399.11 C 249.78 397.80 247.48 397.11 245.05 397.72 C 244.91 396.24 246.86 393.03 244.04 393.96 C 241.35 394.06 240.62 396.09 241.87 400.06 C 237.05 397.99 227.49 406.12 227.29 397.78 C 226.79 394.25 221.92 393.80 219.28 393.95 C 218.80 397.07 219.58 400.68 217.99 403.62 C 215.87 403.57 213.87 402.82 211.92 402.08 C 211.21 401.27 210.52 400.45 209.84 399.62 C 212.48 399.29 212.93 395.25 210.69 394.13 C 202.51 390.47 205.51 398.85 204.79 403.17 C 203.16 402.39 201.45 402.10 199.93 403.29 C 197.86 400.52 197.18 397.09 195.87 393.97 C 192.60 393.93 193.35 398.72 192.23 400.99 C 190.75 402.38 189.51 405.49 187.05 404.18 C 186.80 398.17 179.70 407.04 181.10 400.16 C 190.75 402.62 185.59 397.57 182.87 398.71 C 178.60 400.72 181.95 389.87 186.33 395.67 C 181.09 390.60 176.82 395.33 178.56 401.43 C 176.10 399.05 176.45 393.18 171.96 393.96 C 171.53 393.99 170.67 394.06 170.24 394.09 C 174.90 400.81 161.12 400.82 165.77 394.11 C 161.52 392.73 164.64 399.77 163.75 402.21 C 159.61 398.64 153.96 396.66 148.67 398.47 C 150.04 397.36 150.72 394.97 148.71 394.13 C 139.81 390.38 144.42 400.08 142.12 404.40 C 140.60 404.98 139.29 404.49 138.34 403.23 C 136.85 399.85 135.38 403.18 133.00 403.08 C 132.23 400.34 134.16 399.82 136.44 399.71 C 136.67 397.82 136.83 395.92 136.86 394.03 C 127.93 390.38 132.65 399.34 130.04 403.43 C 128.64 405.64 126.75 405.96 124.70 404.30 C 129.16 402.03 128.64 395.37 123.61 394.33 C 115.75 390.56 118.91 398.23 118.33 402.22 C 115.86 400.32 112.91 401.65 110.17 401.96 C 107.85 401.21 111.97 394.14 108.93 394.00 C 104.38 393.04 107.85 400.45 106.84 403.12 C 102.56 399.48 108.54 409.15 104.33 406.61 C 101.32 406.29 102.61 402.94 102.08 400.89 C 101.98 397.10 99.06 391.96 94.33 394.14 C 90.46 396.36 91.54 401.69 94.27 404.47 C 92.20 404.61 90.10 404.65 88.07 404.13 C 80.79 405.02 83.65 398.23 82.87 394.07 C 78.62 392.87 81.70 399.82 80.54 402.25 C 77.53 400.14 75.96 394.57 71.32 396.30 C 64.60 399.23 57.90 395.05 51.03 396.75 C 43.88 395.12 33.93 391.71 29.22 399.07 C 28.26 393.07 19.58 393.56 16.24 397.41 C 12.54 403.01 6.50 391.43 5.79 398.66 C 3.95 397.75 2.03 397.00 0.00 396.63 L 0.00 375.04 C 31.64 374.20 63.45 378.74 94.99 373.90 C 108.48 372.22 122.11 375.46 135.64 373.75 C 137.59 367.20 144.51 380.13 145.51 372.28 C 149.88 367.41 157.28 365.13 158.81 357.81 C 158.89 358.64 159.05 360.28 159.13 361.11 Z" fill="#ac65cc" opacity="1.00" stroke="#ac65cc" stroke-width="0.25" data-index="59" style="visibility: hidden; fill: rgb(121, 40, 202); opacity: 1;"></path>

<path d="M 285.38 367.05 C 289.51 370.92 273.04 370.10 276.80 367.86 C 279.69 367.88 282.51 367.42 285.38 367.05 Z" fill="#d2a3ec" opacity="1.00" stroke="#d2a3ec" stroke-width="0.25" data-index="61" style="visibility: hidden; opacity: 1;"></path>

<path d="M 94.33 394.14 C 99.06 391.96 101.98 397.10 102.08 400.89 C 100.45 403.68 97.51 405.39 94.27 404.47 C 91.54 401.69 90.46 396.36 94.33 394.14 Z" fill="#ecbbf8" opacity="1.00" stroke="#ecbbf8" stroke-width="0.25" data-index="63" style="opacity: 1; visibility: hidden;"></path>

<path d="M 108.93 394.00 C 111.97 394.14 107.85 401.21 110.17 401.96 C 112.91 401.65 115.86 400.32 118.33 402.22 C 117.66 405.71 122.46 403.70 124.70 404.30 C 126.75 405.96 128.64 405.64 130.04 403.43 C 132.80 403.78 135.69 404.37 138.34 403.23 C 139.29 404.49 140.60 404.98 142.12 404.40 C 146.45 406.30 145.85 403.20 145.02 399.87 C 148.20 400.18 147.61 405.55 151.13 405.06 C 150.71 402.83 147.82 400.67 148.67 398.47 C 153.96 396.66 159.61 398.64 163.75 402.21 C 165.64 406.11 167.48 403.03 166.06 400.01 C 171.18 397.87 168.54 404.78 172.69 404.13 C 172.47 400.72 172.06 397.36 171.96 393.96 C 176.45 393.18 176.10 399.05 178.56 401.43 C 178.81 405.79 184.05 403.47 187.05 404.18 C 189.51 405.49 190.75 402.38 192.23 400.99 C 196.29 399.53 195.97 406.22 199.93 403.29 C 201.45 402.10 203.16 402.39 204.79 403.17 C 208.25 405.49 207.57 402.58 207.05 399.87 C 208.80 400.71 213.82 407.35 211.92 402.08 C 213.87 402.82 215.87 403.57 217.99 403.62 C 223.19 405.74 228.58 403.82 227.29 397.78 C 227.49 406.12 237.05 397.99 241.87 400.06 C 241.66 402.20 240.47 405.29 243.86 403.90 C 243.98 400.56 244.04 397.29 244.04 393.96 C 246.86 393.03 244.91 396.24 245.05 397.72 C 247.48 397.11 249.78 397.80 251.85 399.11 C 249.69 406.91 261.08 404.47 260.28 398.07 C 262.14 398.75 264.05 399.31 265.92 399.99 C 265.96 401.36 266.03 402.73 266.13 404.10 C 268.86 404.10 267.79 399.30 270.71 400.03 C 270.04 403.46 273.37 405.80 273.19 401.16 C 274.20 397.51 277.73 400.27 280.13 400.62 C 279.81 403.69 281.80 399.88 282.76 399.14 C 283.39 401.85 283.87 405.38 287.34 403.24 C 288.91 403.75 290.45 404.82 292.17 404.37 C 294.14 404.18 296.12 404.11 298.10 403.91 C 300.97 402.82 303.92 402.18 306.99 402.83 C 316.47 407.76 308.89 394.79 313.03 393.99 C 314.37 396.54 310.90 403.13 314.58 404.22 C 313.91 402.98 314.53 398.96 315.95 400.80 C 315.74 403.68 321.96 405.68 318.63 402.28 C 316.36 400.48 319.02 398.02 319.35 395.90 C 321.56 398.48 321.19 404.94 325.89 402.19 C 325.88 405.90 330.72 403.68 333.22 403.96 C 335.72 403.76 336.87 401.05 338.74 399.69 C 344.62 399.39 341.28 405.73 337.74 401.14 C 336.85 406.24 344.71 404.83 344.27 400.40 C 346.72 393.46 346.96 408.08 349.07 399.88 C 351.35 400.57 353.62 401.13 355.87 402.05 C 355.69 402.35 355.34 402.94 355.16 403.23 C 350.28 400.97 344.37 404.38 354.75 403.92 C 354.01 404.71 353.09 405.26 351.98 405.58 C 355.68 408.39 359.76 403.79 363.76 405.89 C 362.55 403.66 362.49 401.23 363.05 398.80 C 363.60 402.39 366.74 407.45 370.40 403.43 C 372.10 402.47 373.91 401.55 375.06 399.90 C 376.38 401.67 377.69 403.46 379.14 405.14 C 381.88 408.76 386.91 406.57 388.74 403.19 C 391.84 403.87 395.87 405.41 395.26 401.17 C 387.87 406.46 394.46 397.71 396.16 393.94 C 398.04 396.36 401.07 406.00 402.85 398.82 C 400.48 404.24 405.50 406.12 409.38 402.73 C 411.16 402.49 412.92 402.18 414.69 401.86 C 413.05 406.13 419.12 403.69 421.70 404.19 C 424.61 403.88 427.37 404.57 429.83 406.15 C 429.05 404.59 427.78 402.98 428.87 401.25 C 429.38 400.15 429.85 399.05 430.29 397.93 C 432.18 402.73 437.61 404.26 441.42 400.64 C 464.93 399.70 488.46 401.12 512.00 401.00 L 512.00 420.17 C 494.25 417.13 476.12 418.04 458.17 416.42 C 430.95 420.84 402.89 415.35 375.54 419.41 C 356.19 422.34 337.30 416.72 317.98 418.01 C 312.51 420.25 309.58 413.21 304.19 415.30 C 291.31 419.00 277.53 418.39 264.44 416.64 C 258.78 420.73 250.92 412.28 246.29 417.45 C 214.90 418.75 183.41 417.64 151.98 417.96 C 115.53 423.32 78.71 417.67 42.13 417.89 C 39.07 417.04 39.08 410.81 34.03 414.21 C 27.84 415.18 20.48 413.02 15.44 417.56 C 10.14 418.94 5.31 415.59 0.00 415.81 L 0.00 396.63 C 2.03 397.00 3.95 397.75 5.79 398.66 C 6.50 391.43 12.54 403.01 16.24 397.41 C 19.58 393.56 28.26 393.07 29.22 399.07 C 33.93 391.71 43.88 395.12 51.03 396.75 C 57.90 395.05 64.60 399.23 71.32 396.30 C 75.96 394.57 77.53 400.14 80.54 402.25 C 79.76 405.95 85.78 403.29 88.07 404.13 C 90.10 404.65 92.20 404.61 94.27 404.47 C 97.51 405.39 100.45 403.68 102.08 400.89 C 102.61 402.94 101.32 406.29 104.33 406.61 C 108.54 409.15 102.56 399.48 106.84 403.12 C 108.42 404.72 116.21 404.69 111.87 403.23 C 106.84 403.52 109.79 396.91 108.93 394.00 Z" fill="#b569ca" opacity="1.00" stroke="#b569ca" stroke-width="0.25" data-index="65" style="visibility: hidden; fill: rgb(121, 40, 202); opacity: 1;"></path>

<path d="M 130.04 403.43 C 132.65 399.34 127.93 390.38 136.86 394.03 C 136.83 395.92 136.67 397.82 136.44 399.71 C 134.16 399.82 132.23 400.34 133.00 403.08 C 135.38 403.18 136.85 399.85 138.34 403.23 C 135.69 404.37 132.80 403.78 130.04 403.43 Z" fill="#daacea" opacity="1.00" stroke="#daacea" stroke-width="0.25" data-index="67" style="opacity: 1; visibility: hidden;"></path>

<path d="M 163.75 402.21 C 164.64 399.77 161.52 392.73 165.77 394.11 C 161.12 400.82 174.90 400.81 170.24 394.09 C 170.67 394.06 171.53 393.99 171.96 393.96 C 172.06 397.36 172.47 400.72 172.69 404.13 C 168.54 404.78 171.18 397.87 166.06 400.01 C 167.48 403.03 165.64 406.11 163.75 402.21 Z" fill="#f0cdf7" opacity="1.00" stroke="#f0cdf7" stroke-width="0.25" data-index="69" style="visibility: hidden;"></path>

<path d="M 192.23 400.99 C 193.35 398.72 192.60 393.93 195.87 393.97 C 197.18 397.09 197.86 400.52 199.93 403.29 C 195.97 406.22 196.29 399.53 192.23 400.99 Z" fill="#e1b9ed" opacity="1.00" stroke="#e1b9ed" stroke-width="0.25" data-index="71" style="visibility: hidden; opacity: 1;"></path>

<path d="M 219.28 393.95 C 221.92 393.80 226.79 394.25 227.29 397.78 C 228.58 403.82 223.19 405.74 217.99 403.62 C 219.58 400.68 218.80 397.07 219.28 393.95 Z" fill="#f3c9fc" opacity="1.00" stroke="#f3c9fc" stroke-width="0.25" data-index="73" style="visibility: hidden;"></path>

<path d="M 251.85 399.11 C 249.51 392.07 258.91 392.33 260.28 398.07 C 261.08 404.47 249.69 406.91 251.85 399.11 Z" fill="#f2c9fb" opacity="1.00" stroke="#f2c9fb" stroke-width="0.25" data-index="75" style="opacity: 1; visibility: hidden;"></path>

<path d="M 282.42 393.92 C 283.91 397.10 284.96 400.55 287.34 403.24 C 283.87 405.38 283.39 401.85 282.76 399.14 C 281.80 399.88 279.81 403.69 280.13 400.62 C 280.97 398.41 281.69 396.16 282.42 393.92 Z" fill="#ebc4f5" opacity="1.00" stroke="#ebc4f5" stroke-width="0.25" data-index="77" style="opacity: 1; visibility: hidden;"></path>

<path d="M 313.03 393.99 C 315.28 393.92 318.19 393.40 319.35 395.90 C 319.02 398.02 316.36 400.48 318.63 402.28 C 321.96 405.68 315.74 403.68 315.95 400.80 C 314.53 398.96 313.91 402.98 314.58 404.22 C 310.90 403.13 314.37 396.54 313.03 393.99 Z" fill="#f4d0fb" opacity="1.00" stroke="#f4d0fb" stroke-width="0.25" data-index="79" style="opacity: 1; visibility: hidden;"></path>

<path d="M 338.74 399.69 C 334.74 394.17 344.64 391.12 344.32 397.83 C 342.73 396.54 340.90 395.70 338.81 395.96 C 340.13 397.98 342.24 399.19 344.27 400.40 C 344.71 404.83 336.85 406.24 337.74 401.14 C 341.28 405.73 344.62 399.39 338.74 399.69 Z" fill="#eebcfa" opacity="1.00" stroke="#eebcfa" stroke-width="0.25" data-index="81" style="opacity: 1; visibility: hidden;"></path>

<path d="M 375.06 399.90 C 375.51 396.38 379.08 393.10 382.71 394.17 C 387.58 397.29 385.44 405.81 379.14 405.14 C 377.69 403.46 376.38 401.67 375.06 399.90 Z" fill="#e6b7f2" opacity="1.00" stroke="#e6b7f2" stroke-width="0.25" data-index="83" style="opacity: 1; visibility: hidden;"></path>

<path d="M 403.19 393.81 C 407.33 396.35 402.35 405.16 409.38 402.73 C 405.50 406.12 400.48 404.24 402.85 398.82 C 402.98 397.14 403.04 395.47 403.19 393.81 Z" fill="#f6cbfd" opacity="1.00" stroke="#f6cbfd" stroke-width="0.25" data-index="85" style="opacity: 1;"></path>

<path d="M 428.87 401.25 C 426.70 396.42 429.71 390.25 430.29 397.93 C 429.85 399.05 429.38 400.15 428.87 401.25 Z" fill="#eac4f7" opacity="1.00" stroke="#eac4f7" stroke-width="0.25" data-index="87" style="opacity: 1; visibility: hidden;"></path>

<path d="M 121.12 395.06 C 124.33 395.78 128.29 399.76 124.30 402.32 C 120.03 405.75 119.09 397.44 121.12 395.06 Z" fill="#a56cc2" opacity="1.00" stroke="#a56cc2" stroke-width="0.25" data-index="89" style="visibility: hidden;"></path>

<path d="M 221.06 394.94 C 224.99 394.92 228.13 402.04 222.94 402.94 C 218.52 404.37 221.56 397.48 221.06 394.94 Z" fill="#aa70be" opacity="1.00" stroke="#aa70be" stroke-width="0.25" data-index="91" style="visibility: hidden;"></path>

<path d="M 315.10 395.08 C 318.11 395.31 317.02 399.50 314.26 399.13 C 314.39 397.76 314.15 396.22 315.10 395.08 Z" fill="#9f78ad" opacity="1.00" stroke="#9f78ad" stroke-width="0.25" data-index="93" style="opacity: 1; visibility: hidden;"></path>

<path d="M 418.21 395.09 C 423.94 394.84 422.64 404.53 417.01 403.05 C 418.03 400.85 415.58 396.82 418.21 395.09 Z" fill="#ab73c3" opacity="1.00" stroke="#ab73c3" stroke-width="0.25" data-index="95" style="opacity: 1; visibility: hidden;"></path>
<path d="M 145.16 396.16 C 149.80 395.15 144.16 400.80 145.16 396.16 Z" fill="#9771a6" opacity="1.00" stroke="#9771a6" stroke-width="0.25" data-index="96"></path>

<path d="M 292.50 399.70 C 294.09 400.03 295.73 400.30 297.17 401.11 C 295.84 404.24 291.78 403.31 292.50 399.70 Z" fill="#a57dbe" opacity="1.00" stroke="#a57dbe" stroke-width="0.25" data-index="98" style="opacity: 1; visibility: hidden;"></path>

<path d="M 15.44 417.56 C 20.48 413.02 27.84 415.18 34.03 414.21 C 39.08 410.81 39.07 417.04 42.13 417.89 C 78.71 417.67 115.53 423.32 151.98 417.96 C 183.41 417.64 214.90 418.75 246.29 417.45 C 250.92 412.28 258.78 420.73 264.44 416.64 C 277.53 418.39 291.31 419.00 304.19 415.30 C 309.58 413.21 312.51 420.25 317.98 418.01 C 337.30 416.72 356.19 422.34 375.54 419.41 C 402.89 415.35 430.95 420.84 458.17 416.42 C 476.12 418.04 494.25 417.13 512.00 420.17 L 512.00 440.94 C 490.98 442.56 470.01 440.49 449.00 442.03 C 428.12 443.45 407.76 438.99 386.97 441.78 C 327.46 441.63 267.80 442.00 208.31 441.70 C 190.55 439.11 172.71 443.86 154.98 441.19 C 131.02 440.33 106.88 444.26 83.02 440.91 C 71.22 437.77 59.80 443.10 47.99 442.05 C 31.95 440.69 15.19 442.82 0.00 436.65 L 0.00 415.81 C 5.31 415.59 10.14 418.94 15.44 417.56 Z" fill="#bc6ccd" opacity="1.00" stroke="#bc6ccd" stroke-width="0.25" data-index="100" style="visibility: hidden; fill: rgb(121, 40, 202); opacity: 1;"></path>

<path d="M 0.00 460.11 C 20.57 457.67 41.35 459.61 62.00 459.00 C 212.03 459.23 361.93 458.95 512.00 459.00 L 512.00 461.00 C 341.33 461.03 170.67 460.94 0.00 461.04 L 0.00 460.11 Z" fill="#bf7dc6" opacity="1.00" stroke="#bf7dc6" stroke-width="0.25" data-index="102" style="opacity: 1; visibility: hidden;"></path>

</svg>